<svg width="670" height="32" viewBox="0 0 670 32" fill="none" xmlns="http://www.w3.org/2000/svg">
<path d="M14.8935 20.7983L14.7017 26.4375H12.1449V23H11.1222V20.7983H14.8935ZM1.43466 23V8.45455H3.96307V20.8125H10.4972V8.45455H13.0469V23H1.43466ZM16.9265 23V12.0909H21.5075C22.8001 12.0909 23.8204 12.349 24.5685 12.8651C25.3214 13.3812 25.6978 14.1009 25.6978 15.0241C25.6978 15.6349 25.4847 16.1345 25.0586 16.5227C24.6372 16.9062 24.0619 17.1643 23.3327 17.2969C23.9057 17.3442 24.4076 17.4886 24.8384 17.7301C25.274 17.9716 25.6149 18.2888 25.8612 18.6818C26.1074 19.0748 26.2305 19.527 26.2305 20.0384C26.2305 20.6397 26.0719 21.1629 25.7546 21.608C25.4421 22.0483 24.9852 22.3916 24.3839 22.6378C23.7873 22.8793 23.0629 23 22.2106 23H16.9265ZM19.3342 20.9759H22.2106C22.6841 20.9759 23.0558 20.8646 23.3256 20.642C23.5955 20.4148 23.7305 20.107 23.7305 19.7188C23.7305 19.2689 23.5955 18.9162 23.3256 18.6605C23.0558 18.4001 22.6841 18.2699 22.2106 18.2699H19.3342V20.9759ZM19.3342 16.608H21.5572C21.9076 16.608 22.2082 16.5582 22.4592 16.4588C22.7101 16.3546 22.9019 16.2102 23.0344 16.0256C23.167 15.8362 23.2333 15.6113 23.2333 15.3509C23.2333 14.9768 23.0794 14.6832 22.7717 14.4702C22.4686 14.2571 22.0472 14.1506 21.5075 14.1506H19.3342V16.608ZM33.1818 23.2131C32.0881 23.2131 31.1435 22.9858 30.348 22.5312C29.5573 22.072 28.9489 21.4233 28.5227 20.5852C28.0966 19.7424 27.8835 18.7505 27.8835 17.6094C27.8835 16.4872 28.0966 15.5024 28.5227 14.6548C28.9536 13.8026 29.5549 13.1397 30.3267 12.6662C31.0985 12.188 32.0052 11.9489 33.0469 11.9489C33.7192 11.9489 34.3537 12.0578 34.9503 12.2756C35.5516 12.4886 36.0819 12.8201 36.5412 13.2699C37.0052 13.7197 37.3698 14.2926 37.6349 14.9886C37.9001 15.6799 38.0327 16.5038 38.0327 17.4602V18.2486H29.0909V16.5156H35.5682C35.5634 16.0232 35.4569 15.5852 35.2486 15.2017C35.0402 14.8134 34.7491 14.508 34.375 14.2855C34.0057 14.063 33.5748 13.9517 33.0824 13.9517C32.5568 13.9517 32.0952 14.0795 31.6974 14.3352C31.2997 14.5862 30.9896 14.9176 30.767 15.3295C30.5492 15.7367 30.438 16.1842 30.4332 16.6719V18.1847C30.4332 18.8191 30.5492 19.3636 30.7812 19.8182C31.0133 20.268 31.3376 20.6136 31.7543 20.8551C32.1709 21.0919 32.6586 21.2102 33.2173 21.2102C33.5914 21.2102 33.9299 21.1581 34.233 21.054C34.536 20.9451 34.7988 20.7865 35.0213 20.5781C35.2438 20.3698 35.4119 20.1117 35.5256 19.804L37.9261 20.0739C37.7746 20.7083 37.4858 21.2623 37.0597 21.7358C36.6383 22.2045 36.0985 22.5691 35.4403 22.8295C34.7822 23.0852 34.0294 23.2131 33.1818 23.2131ZM39.2987 14.2003V12.0909H48.8441V14.2003H45.3143V23H42.8285V14.2003H39.2987ZM52.4751 23.1562C52.0443 23.1562 51.675 23.0047 51.3672 22.7017C51.0594 22.3987 50.9079 22.0294 50.9126 21.5938C50.9079 21.1676 51.0594 20.803 51.3672 20.5C51.675 20.197 52.0443 20.0455 52.4751 20.0455C52.8918 20.0455 53.254 20.197 53.5618 20.5C53.8743 20.803 54.0329 21.1676 54.0376 21.5938C54.0329 21.8826 53.9571 22.1454 53.8104 22.3821C53.6683 22.6188 53.4789 22.8082 53.2422 22.9503C53.0102 23.0876 52.7545 23.1562 52.4751 23.1562ZM52.4751 15.3722C52.0443 15.3722 51.675 15.2206 51.3672 14.9176C51.0594 14.6098 50.9079 14.2405 50.9126 13.8097C50.9079 13.3835 51.0594 13.0189 51.3672 12.7159C51.675 12.4081 52.0443 12.2543 52.4751 12.2543C52.8918 12.2543 53.254 12.4081 53.5618 12.7159C53.8743 13.0189 54.0329 13.3835 54.0376 13.8097C54.0329 14.0937 53.9571 14.3542 53.8104 14.5909C53.6683 14.8277 53.4789 15.017 53.2422 15.1591C53.0102 15.3011 52.7545 15.3722 52.4751 15.3722Z" fill="#263141"/>
<rect x="68.5" y="0.5" width="31" height="31" rx="7.5" fill="#FDFDFD"/>
<rect x="68.5" y="0.5" width="31" height="31" rx="7.5" stroke="#ECEEEF"/>
<rect x="72" y="4" width="24" height="24" rx="4" fill="#F2F5F9"/>
<rect x="112.5" y="0.5" width="31" height="31" rx="7.5" fill="#FDFDFD"/>
<rect x="112.5" y="0.5" width="31" height="31" rx="7.5" stroke="#ECEEEF"/>
<rect x="116" y="4" width="24" height="24" rx="4" fill="#FFE0BB"/>
<rect x="156.5" y="0.5" width="31" height="31" rx="7.5" fill="#FDFDFD"/>
<rect x="156.5" y="0.5" width="31" height="31" rx="7.5" stroke="#ECEEEF"/>
<rect x="160" y="4" width="24" height="24" rx="4" fill="#FFBBBB"/>
<rect x="200.5" y="0.5" width="31" height="31" rx="7.5" fill="#FDFDFD"/>
<rect x="200.5" y="0.5" width="31" height="31" rx="7.5" stroke="#FF4D4D"/>
<rect x="204" y="4" width="24" height="24" rx="4" fill="#6C6C6C"/>
<rect x="244.5" y="0.5" width="31" height="31" rx="7.5" fill="#FDFDFD"/>
<rect x="244.5" y="0.5" width="31" height="31" rx="7.5" stroke="#ECEEEF"/>
<rect x="248" y="4" width="24" height="24" rx="4" fill="#BBFFE2"/>
<rect x="288.5" y="0.5" width="31" height="31" rx="7.5" fill="#FDFDFD"/>
<rect x="288.5" y="0.5" width="31" height="31" rx="7.5" stroke="#ECEEEF"/>
<rect x="292" y="4" width="24" height="24" rx="4" fill="#BBC2FF"/>
<rect x="332.5" y="0.5" width="31" height="31" rx="7.5" fill="#FDFDFD"/>
<rect x="332.5" y="0.5" width="31" height="31" rx="7.5" stroke="#ECEEEF"/>
<rect x="336" y="4" width="24" height="24" rx="4" fill="#FEBBFF"/>
</svg>
