<svg width="670" height="36" viewBox="0 0 670 36" fill="none" xmlns="http://www.w3.org/2000/svg">
<path d="M13.3026 10.4545V25H10.6889V12.642H4.32528V25H1.71165V10.4545H13.3026ZM19.4798 25.2202C18.7885 25.2202 18.1658 25.0971 17.6119 24.8509C17.0626 24.5999 16.627 24.2306 16.305 23.7429C15.9878 23.2552 15.8292 22.6539 15.8292 21.9389C15.8292 21.3234 15.9428 20.8144 16.1701 20.4119C16.3974 20.0095 16.7075 19.6875 17.1005 19.446C17.4935 19.2045 17.9362 19.0223 18.4286 18.8991C18.9258 18.7713 19.4395 18.679 19.9698 18.6222C20.609 18.5559 21.1275 18.4967 21.5252 18.4446C21.9229 18.3878 22.2118 18.3026 22.3917 18.1889C22.5763 18.0705 22.6687 17.8883 22.6687 17.642V17.5994C22.6687 17.0644 22.5101 16.6501 22.1928 16.3565C21.8756 16.063 21.4187 15.9162 20.8221 15.9162C20.1924 15.9162 19.6928 16.0535 19.3235 16.3281C18.9589 16.6027 18.7127 16.9271 18.5849 17.3011L16.1843 16.9602C16.3737 16.2973 16.6862 15.7434 17.1218 15.2983C17.5574 14.8485 18.0901 14.5123 18.7198 14.2898C19.3496 14.0625 20.0456 13.9489 20.8079 13.9489C21.3335 13.9489 21.8567 14.0104 22.3775 14.1335C22.8983 14.2566 23.3742 14.4602 23.805 14.7443C24.2359 15.0237 24.5816 15.4048 24.842 15.8878C25.1071 16.3707 25.2397 16.9744 25.2397 17.6989V25H22.7681V23.5014H22.6829C22.5266 23.8045 22.3065 24.0885 22.0224 24.3537C21.743 24.6141 21.3903 24.8248 20.9641 24.9858C20.5427 25.142 20.0479 25.2202 19.4798 25.2202ZM20.1474 23.331C20.6635 23.331 21.1109 23.2292 21.4897 23.0256C21.8685 22.8172 22.1597 22.5426 22.3633 22.2017C22.5716 21.8608 22.6758 21.4891 22.6758 21.0866V19.8011C22.5953 19.8674 22.458 19.929 22.2638 19.9858C22.0745 20.0426 21.8614 20.0923 21.6246 20.1349C21.3879 20.1776 21.1535 20.2154 20.9215 20.2486C20.6895 20.2817 20.4883 20.3101 20.3178 20.3338C19.9343 20.3859 19.591 20.4711 19.288 20.5895C18.985 20.7079 18.7459 20.8736 18.5707 21.0866C18.3955 21.295 18.3079 21.5649 18.3079 21.8963C18.3079 22.3698 18.4807 22.7273 18.8263 22.9688C19.172 23.2102 19.6123 23.331 20.1474 23.331ZM34.1033 22.0099L37.342 14.0909H39.4158L35.0053 25H33.2085L28.8974 14.0909H30.9499L34.1033 22.0099ZM30.3036 14.0909V25H27.8249V14.0909H30.3036ZM38.0096 25V14.0909H40.467V25H38.0096ZM49.5082 25V16.179H47.1786C46.5868 16.179 46.1322 16.3163 45.815 16.5909C45.4978 16.8655 45.3415 17.2064 45.3462 17.6136C45.3415 18.0208 45.4906 18.357 45.7937 18.6222C46.0967 18.8873 46.5299 19.0199 47.0934 19.0199H50.3178V20.8949H47.0934C46.2222 20.8949 45.4693 20.7576 44.8349 20.483C44.2004 20.2083 43.7127 19.8201 43.3718 19.3182C43.0309 18.8163 42.8604 18.2292 42.8604 17.5568C42.8604 16.8561 43.0333 16.2476 43.3789 15.7315C43.7293 15.2107 44.2264 14.8082 44.8704 14.5241C45.5191 14.2353 46.2885 14.0909 47.1786 14.0909H51.9158V25H49.5082ZM42.4627 25L45.5096 19.4034H48.0451L44.9911 25H42.4627ZM53.283 16.2003V14.0909H62.8285V16.2003H59.2987V25H56.8129V16.2003H53.283ZM66.6158 17.642H69.8331C71.2251 17.642 72.3023 17.9806 73.0646 18.6577C73.8269 19.3348 74.2105 20.2225 74.2152 21.321C74.2105 22.036 74.0353 22.6705 73.6896 23.2244C73.3487 23.7784 72.8516 24.214 72.1982 24.5312C71.5495 24.8438 70.7611 25 69.8331 25H64.8757V14.0909H67.3544V22.8906H69.8331C70.3918 22.8906 70.8511 22.7486 71.2109 22.4645C71.5708 22.1757 71.7507 21.8063 71.7507 21.3565C71.7507 20.883 71.5708 20.4972 71.2109 20.1989C70.8511 19.9006 70.3918 19.7514 69.8331 19.7514H66.6158V17.642ZM78.0025 25.1562C77.5716 25.1562 77.2023 25.0047 76.8945 24.7017C76.5868 24.3987 76.4353 24.0294 76.44 23.5938C76.4353 23.1676 76.5868 22.803 76.8945 22.5C77.2023 22.197 77.5716 22.0455 78.0025 22.0455C78.4192 22.0455 78.7814 22.197 79.0891 22.5C79.4016 22.803 79.5603 23.1676 79.565 23.5938C79.5603 23.8826 79.4845 24.1454 79.3377 24.3821C79.1957 24.6188 79.0063 24.8082 78.7695 24.9503C78.5375 25.0876 78.2818 25.1562 78.0025 25.1562ZM78.0025 17.3722C77.5716 17.3722 77.2023 17.2206 76.8945 16.9176C76.5868 16.6098 76.4353 16.2405 76.44 15.8097C76.4353 15.3835 76.5868 15.0189 76.8945 14.7159C77.2023 14.4081 77.5716 14.2543 78.0025 14.2543C78.4192 14.2543 78.7814 14.4081 79.0891 14.7159C79.4016 15.0189 79.5603 15.3835 79.565 15.8097C79.5603 16.0937 79.4845 16.3542 79.3377 16.5909C79.1957 16.8277 79.0063 17.017 78.7695 17.1591C78.5375 17.3011 78.2818 17.3722 78.0025 17.3722Z" fill="#263141"/>
<rect x="93.5" y="0.5" width="75" height="35" rx="7.5" fill="#FDFDFD"/>
<rect x="93.5" y="0.5" width="75" height="35" rx="7.5" stroke="#ECEEEF"/>
<path d="M110.295 12.3636V24H108.886V13.8409H108.818L105.977 15.7273V14.2955L108.886 12.3636H110.295ZM113.642 24V22.9773L117.483 18.7727C117.934 18.2803 118.305 17.8523 118.597 17.4886C118.888 17.1212 119.104 16.7765 119.244 16.4545C119.388 16.1288 119.46 15.7879 119.46 15.4318C119.46 15.0227 119.362 14.6686 119.165 14.3693C118.972 14.0701 118.706 13.839 118.369 13.6761C118.032 13.5133 117.653 13.4318 117.233 13.4318C116.786 13.4318 116.396 13.5246 116.062 13.7102C115.733 13.892 115.477 14.1477 115.295 14.4773C115.117 14.8068 115.028 15.1932 115.028 15.6364H113.688C113.688 14.9545 113.845 14.3561 114.159 13.8409C114.473 13.3258 114.902 12.9242 115.443 12.6364C115.989 12.3485 116.6 12.2045 117.278 12.2045C117.96 12.2045 118.564 12.3485 119.091 12.6364C119.617 12.9242 120.03 13.3125 120.33 13.8011C120.629 14.2898 120.778 14.8333 120.778 15.4318C120.778 15.8598 120.701 16.2784 120.545 16.6875C120.394 17.0928 120.129 17.5455 119.75 18.0455C119.375 18.5417 118.854 19.1477 118.188 19.8636L115.574 22.6591V22.75H120.983V24H113.642ZM127.057 24.1591C126.277 24.1591 125.587 24.0208 124.989 23.7443C124.394 23.464 123.93 23.0795 123.597 22.5909C123.263 22.0985 123.098 21.5379 123.102 20.9091C123.098 20.4167 123.195 19.9621 123.392 19.5455C123.589 19.125 123.858 18.7746 124.199 18.4943C124.544 18.2102 124.928 18.0303 125.352 17.9545V17.8864C124.795 17.7424 124.352 17.4299 124.023 16.9489C123.693 16.464 123.53 15.9129 123.534 15.2955C123.53 14.7045 123.68 14.1761 123.983 13.7102C124.286 13.2443 124.703 12.8769 125.233 12.608C125.767 12.339 126.375 12.2045 127.057 12.2045C127.731 12.2045 128.333 12.339 128.864 12.608C129.394 12.8769 129.811 13.2443 130.114 13.7102C130.42 14.1761 130.576 14.7045 130.58 15.2955C130.576 15.9129 130.407 16.464 130.074 16.9489C129.744 17.4299 129.307 17.7424 128.761 17.8864V17.9545C129.182 18.0303 129.561 18.2102 129.898 18.4943C130.235 18.7746 130.504 19.125 130.705 19.5455C130.905 19.9621 131.008 20.4167 131.011 20.9091C131.008 21.5379 130.837 22.0985 130.5 22.5909C130.167 23.0795 129.703 23.464 129.108 23.7443C128.517 24.0208 127.833 24.1591 127.057 24.1591ZM127.057 22.9091C127.583 22.9091 128.038 22.8239 128.42 22.6534C128.803 22.483 129.098 22.2424 129.307 21.9318C129.515 21.6212 129.621 21.2576 129.625 20.8409C129.621 20.4015 129.508 20.0133 129.284 19.6761C129.061 19.339 128.756 19.0739 128.369 18.8807C127.987 18.6875 127.549 18.5909 127.057 18.5909C126.561 18.5909 126.117 18.6875 125.727 18.8807C125.341 19.0739 125.036 19.339 124.812 19.6761C124.593 20.0133 124.485 20.4015 124.489 20.8409C124.485 21.2576 124.585 21.6212 124.79 21.9318C124.998 22.2424 125.295 22.483 125.682 22.6534C126.068 22.8239 126.527 22.9091 127.057 22.9091ZM127.057 17.3864C127.473 17.3864 127.843 17.303 128.165 17.1364C128.491 16.9697 128.746 16.7367 128.932 16.4375C129.117 16.1383 129.212 15.7879 129.216 15.3864C129.212 14.9924 129.119 14.6496 128.938 14.358C128.756 14.0625 128.504 13.8352 128.182 13.6761C127.86 13.5133 127.485 13.4318 127.057 13.4318C126.621 13.4318 126.241 13.5133 125.915 13.6761C125.589 13.8352 125.337 14.0625 125.159 14.358C124.981 14.6496 124.894 14.9924 124.898 15.3864C124.894 15.7879 124.983 16.1383 125.165 16.4375C125.35 16.7367 125.606 16.9697 125.932 17.1364C126.258 17.303 126.633 17.3864 127.057 17.3864ZM144.916 12.3636V13.6136H139.303V24H137.893V12.3636H144.916ZM147.097 24V12.3636H154.119V13.6136H148.506V17.25H151.46C152.294 17.25 152.996 17.3864 153.568 17.6591C154.144 17.9318 154.58 18.3163 154.875 18.8125C155.174 19.3087 155.324 19.8939 155.324 20.5682C155.324 21.2424 155.174 21.8371 154.875 22.3523C154.58 22.8674 154.144 23.2708 153.568 23.5625C152.996 23.8542 152.294 24 151.46 24H147.097ZM148.506 22.7727H151.46C151.991 22.7727 152.439 22.6667 152.807 22.4545C153.178 22.2386 153.458 21.9621 153.648 21.625C153.841 21.2841 153.938 20.9242 153.938 20.5455C153.938 19.9886 153.723 19.5095 153.295 19.108C152.867 18.7027 152.256 18.5 151.46 18.5H148.506V22.7727Z" fill="#7E8794"/>
<rect x="181.5" y="0.5" width="77" height="35" rx="7.5" fill="#FDFDFD"/>
<rect x="181.5" y="0.5" width="77" height="35" rx="7.5" stroke="#FF4D4D"/>
<path d="M194.205 24V22.9773L198.045 18.7727C198.496 18.2803 198.867 17.8523 199.159 17.4886C199.451 17.1212 199.667 16.7765 199.807 16.4545C199.951 16.1288 200.023 15.7879 200.023 15.4318C200.023 15.0227 199.924 14.6686 199.727 14.3693C199.534 14.0701 199.269 13.839 198.932 13.6761C198.595 13.5133 198.216 13.4318 197.795 13.4318C197.348 13.4318 196.958 13.5246 196.625 13.7102C196.295 13.892 196.04 14.1477 195.858 14.4773C195.68 14.8068 195.591 15.1932 195.591 15.6364H194.25C194.25 14.9545 194.407 14.3561 194.722 13.8409C195.036 13.3258 195.464 12.9242 196.006 12.6364C196.551 12.3485 197.163 12.2045 197.841 12.2045C198.523 12.2045 199.127 12.3485 199.653 12.6364C200.18 12.9242 200.593 13.3125 200.892 13.8011C201.191 14.2898 201.341 14.8333 201.341 15.4318C201.341 15.8598 201.263 16.2784 201.108 16.6875C200.956 17.0928 200.691 17.5455 200.312 18.0455C199.938 18.5417 199.417 19.1477 198.75 19.8636L196.136 22.6591V22.75H201.545V24H194.205ZM207.528 24.1591C206.862 24.1591 206.261 24.0265 205.727 23.7614C205.193 23.4962 204.765 23.1326 204.443 22.6705C204.121 22.2083 203.945 21.6818 203.915 21.0909H205.278C205.331 21.6174 205.57 22.053 205.994 22.3977C206.422 22.7386 206.934 22.9091 207.528 22.9091C208.006 22.9091 208.43 22.7973 208.801 22.5739C209.176 22.3504 209.47 22.0436 209.682 21.6534C209.898 21.2595 210.006 20.8144 210.006 20.3182C210.006 19.8106 209.894 19.358 209.67 18.9602C209.451 18.5587 209.148 18.2424 208.761 18.0114C208.375 17.7803 207.934 17.6629 207.438 17.6591C207.081 17.6553 206.716 17.7102 206.341 17.8239C205.966 17.9337 205.657 18.0758 205.415 18.25L204.097 18.0909L204.801 12.3636H210.847V13.6136H205.983L205.574 17.0455H205.642C205.881 16.8561 206.18 16.6989 206.54 16.5739C206.9 16.4489 207.275 16.3864 207.665 16.3864C208.377 16.3864 209.011 16.5568 209.568 16.8977C210.129 17.2348 210.568 17.697 210.886 18.2841C211.208 18.8712 211.369 19.5417 211.369 20.2955C211.369 21.0379 211.203 21.7008 210.869 22.2841C210.54 22.8636 210.085 23.322 209.506 23.6591C208.926 23.9924 208.267 24.1591 207.528 24.1591ZM217.49 24.1591C217.013 24.1515 216.536 24.0606 216.058 23.8864C215.581 23.7121 215.145 23.4186 214.751 23.0057C214.357 22.589 214.041 22.0265 213.803 21.3182C213.564 20.6061 213.445 19.7121 213.445 18.6364C213.445 17.6061 213.541 16.6932 213.734 15.8977C213.928 15.0985 214.208 14.4261 214.575 13.8807C214.943 13.3314 215.386 12.9148 215.905 12.6307C216.428 12.3466 217.017 12.2045 217.672 12.2045C218.323 12.2045 218.903 12.3352 219.411 12.5966C219.922 12.8542 220.339 13.214 220.661 13.6761C220.982 14.1383 221.191 14.6705 221.286 15.2727H219.899C219.77 14.75 219.52 14.3163 219.149 13.9716C218.778 13.6269 218.286 13.4545 217.672 13.4545C216.77 13.4545 216.06 13.8466 215.541 14.6307C215.026 15.4148 214.767 16.5152 214.763 17.9318H214.854C215.066 17.6098 215.318 17.3352 215.609 17.108C215.905 16.8769 216.231 16.6989 216.587 16.5739C216.943 16.4489 217.32 16.3864 217.717 16.3864C218.384 16.3864 218.994 16.553 219.547 16.8864C220.1 17.2159 220.543 17.6723 220.876 18.2557C221.21 18.8352 221.376 19.5 221.376 20.25C221.376 20.9697 221.215 21.6288 220.893 22.2273C220.571 22.822 220.119 23.2955 219.536 23.6477C218.956 23.9962 218.274 24.1667 217.49 24.1591ZM217.49 22.9091C217.967 22.9091 218.395 22.7898 218.774 22.5511C219.157 22.3125 219.458 21.9924 219.678 21.5909C219.901 21.1894 220.013 20.7424 220.013 20.25C220.013 19.7689 219.905 19.3314 219.689 18.9375C219.477 18.5398 219.183 18.2235 218.808 17.9886C218.437 17.7538 218.013 17.6364 217.536 17.6364C217.176 17.6364 216.84 17.7083 216.53 17.8523C216.219 17.9924 215.946 18.1856 215.712 18.4318C215.481 18.678 215.299 18.9602 215.166 19.2784C215.034 19.5928 214.967 19.9242 214.967 20.2727C214.967 20.7348 215.075 21.1667 215.291 21.5682C215.511 21.9697 215.81 22.2936 216.189 22.5398C216.571 22.786 217.005 22.9091 217.49 22.9091ZM235.338 12.3636V13.6136H229.724V24H228.315V12.3636H235.338ZM237.518 24V12.3636H244.541V13.6136H238.928V17.25H241.882C242.715 17.25 243.418 17.3864 243.99 17.6591C244.566 17.9318 245.001 18.3163 245.297 18.8125C245.596 19.3087 245.746 19.8939 245.746 20.5682C245.746 21.2424 245.596 21.8371 245.297 22.3523C245.001 22.8674 244.566 23.2708 243.99 23.5625C243.418 23.8542 242.715 24 241.882 24H237.518ZM238.928 22.7727H241.882C242.412 22.7727 242.861 22.6667 243.229 22.4545C243.6 22.2386 243.88 21.9621 244.07 21.625C244.263 21.2841 244.359 20.9242 244.359 20.5455C244.359 19.9886 244.145 19.5095 243.717 19.108C243.289 18.7027 242.678 18.5 241.882 18.5H238.928V22.7727Z" fill="#7E8794"/>
<rect x="271.5" y="0.5" width="75" height="35" rx="7.5" fill="#FDFDFD"/>
<rect x="271.5" y="0.5" width="75" height="35" rx="7.5" stroke="#ECEEEF"/>
<path d="M287.841 24.1591C287.174 24.1591 286.574 24.0265 286.04 23.7614C285.506 23.4962 285.078 23.1326 284.756 22.6705C284.434 22.2083 284.258 21.6818 284.227 21.0909H285.591C285.644 21.6174 285.883 22.053 286.307 22.3977C286.735 22.7386 287.246 22.9091 287.841 22.9091C288.318 22.9091 288.742 22.7973 289.114 22.5739C289.489 22.3504 289.782 22.0436 289.994 21.6534C290.21 21.2595 290.318 20.8144 290.318 20.3182C290.318 19.8106 290.206 19.358 289.983 18.9602C289.763 18.5587 289.46 18.2424 289.074 18.0114C288.688 17.7803 288.246 17.6629 287.75 17.6591C287.394 17.6553 287.028 17.7102 286.653 17.8239C286.278 17.9337 285.97 18.0758 285.727 18.25L284.409 18.0909L285.114 12.3636H291.159V13.6136H286.295L285.886 17.0455H285.955C286.193 16.8561 286.492 16.6989 286.852 16.5739C287.212 16.4489 287.587 16.3864 287.977 16.3864C288.689 16.3864 289.324 16.5568 289.881 16.8977C290.441 17.2348 290.881 17.697 291.199 18.2841C291.521 18.8712 291.682 19.5417 291.682 20.2955C291.682 21.0379 291.515 21.7008 291.182 22.2841C290.852 22.8636 290.398 23.322 289.818 23.6591C289.239 23.9924 288.58 24.1591 287.841 24.1591ZM298.03 12.3636V24H296.621V13.8409H296.553L293.712 15.7273V14.2955L296.621 12.3636H298.03ZM301.376 24V22.9773L305.217 18.7727C305.668 18.2803 306.039 17.8523 306.331 17.4886C306.623 17.1212 306.839 16.7765 306.979 16.4545C307.123 16.1288 307.195 15.7879 307.195 15.4318C307.195 15.0227 307.096 14.6686 306.899 14.3693C306.706 14.0701 306.441 13.839 306.104 13.6761C305.767 13.5133 305.388 13.4318 304.967 13.4318C304.52 13.4318 304.13 13.5246 303.797 13.7102C303.467 13.892 303.212 14.1477 303.03 14.4773C302.852 14.8068 302.763 15.1932 302.763 15.6364H301.422C301.422 14.9545 301.579 14.3561 301.893 13.8409C302.208 13.3258 302.636 12.9242 303.178 12.6364C303.723 12.3485 304.335 12.2045 305.013 12.2045C305.695 12.2045 306.299 12.3485 306.825 12.6364C307.352 12.9242 307.765 13.3125 308.064 13.8011C308.363 14.2898 308.513 14.8333 308.513 15.4318C308.513 15.8598 308.435 16.2784 308.28 16.6875C308.128 17.0928 307.863 17.5455 307.484 18.0455C307.109 18.5417 306.589 19.1477 305.922 19.8636L303.308 22.6591V22.75H308.717V24H301.376ZM322.791 12.3636V13.6136H317.178V24H315.768V12.3636H322.791ZM324.972 24V12.3636H331.994V13.6136H326.381V17.25H329.335C330.169 17.25 330.871 17.3864 331.443 17.6591C332.019 17.9318 332.455 18.3163 332.75 18.8125C333.049 19.3087 333.199 19.8939 333.199 20.5682C333.199 21.2424 333.049 21.8371 332.75 22.3523C332.455 22.8674 332.019 23.2708 331.443 23.5625C330.871 23.8542 330.169 24 329.335 24H324.972ZM326.381 22.7727H329.335C329.866 22.7727 330.314 22.6667 330.682 22.4545C331.053 22.2386 331.333 21.9621 331.523 21.625C331.716 21.2841 331.812 20.9242 331.812 20.5455C331.812 19.9886 331.598 19.5095 331.17 19.108C330.742 18.7027 330.131 18.5 329.335 18.5H326.381V22.7727Z" fill="#7E8794"/>
</svg>
