<svg width="44" height="44" viewBox="0 0 44 44" fill="none" xmlns="http://www.w3.org/2000/svg">
<rect x="0.5" y="0.5" width="43" height="43" rx="21.5" fill="#F6F7FA"/>
<rect x="0.5" y="0.5" width="43" height="43" rx="21.5" stroke="#FDFDFD"/>
<path d="M30.3332 30.9582H16.1665C14.4415 30.9582 13.0415 29.5582 13.0415 27.8332V13.6665C13.0415 13.3248 13.3248 13.0415 13.6665 13.0415C14.0082 13.0415 14.2915 13.3248 14.2915 13.6665V27.8332C14.2915 28.8665 15.1332 29.7082 16.1665 29.7082H30.3332C30.6748 29.7082 30.9582 29.9915 30.9582 30.3332C30.9582 30.6748 30.6748 30.9582 30.3332 30.9582Z" fill="#FF4D4D"/>
<path opacity="0.4" d="M16.1668 26.7917C16.0252 26.7917 15.8752 26.7417 15.7585 26.6417C15.5002 26.4167 15.4668 26.025 15.6918 25.7584L19.5168 21.2917C19.9335 20.8083 20.5335 20.5167 21.1668 20.4917C21.8002 20.475 22.4252 20.7083 22.8752 21.1583L23.6668 21.95C23.8752 22.1583 24.1418 22.2583 24.4418 22.2583C24.7335 22.25 25.0002 22.1167 25.1918 21.8917L29.0168 17.425C29.2418 17.1667 29.6335 17.1333 29.9002 17.3583C30.1585 17.5833 30.1918 17.975 29.9668 18.2417L26.1418 22.7084C25.7252 23.1917 25.1252 23.4833 24.4918 23.5083C23.8502 23.525 23.2335 23.2917 22.7835 22.8417L22.0002 22.05C21.7918 21.8417 21.5168 21.7334 21.2252 21.7417C20.9335 21.75 20.6668 21.8834 20.4752 22.1084L16.6502 26.575C16.5168 26.7167 16.3418 26.7917 16.1668 26.7917Z" fill="#FF4D4D"/>
</svg>
