<svg width="305" height="84" viewBox="0 0 305 84" fill="none" xmlns="http://www.w3.org/2000/svg">
<path d="M277.389 44.0642L305 73.546V84H0V30.4328L27.6105 12.0463L55.5421 66.2036L69.3474 40.1906L83.1526 14.1776L110.763 44.0642L138.374 0L166.305 61.7566L194.237 63.4408L221.526 16.4934L249.458 57.0616L277.389 44.0642Z" fill="url(#paint0_linear_53_17226)"/>
<g filter="url(#filter0_b_53_17226)">
<rect x="87.5" y="28" width="129" height="28" rx="8" fill="#FDFDFD" fill-opacity="0.6"/>
<path d="M105.915 41.5568V42.8068H100.824V41.5568H105.915ZM112.342 36.3636V48H110.933V37.8409H110.865L108.024 39.7273V38.2955L110.933 36.3636H112.342ZM115.689 48V46.9773L119.53 42.7727C119.981 42.2803 120.352 41.8523 120.643 41.4886C120.935 41.1212 121.151 40.7765 121.291 40.4545C121.435 40.1288 121.507 39.7879 121.507 39.4318C121.507 39.0227 121.409 38.6686 121.212 38.3693C121.018 38.0701 120.753 37.839 120.416 37.6761C120.079 37.5133 119.7 37.4318 119.28 37.4318C118.833 37.4318 118.443 37.5246 118.109 37.7102C117.78 37.892 117.524 38.1477 117.342 38.4773C117.164 38.8068 117.075 39.1932 117.075 39.6364H115.734C115.734 38.9545 115.892 38.3561 116.206 37.8409C116.52 37.3258 116.948 36.9242 117.49 36.6364C118.036 36.3485 118.647 36.2045 119.325 36.2045C120.007 36.2045 120.611 36.3485 121.138 36.6364C121.664 36.9242 122.077 37.3125 122.376 37.8011C122.676 38.2898 122.825 38.8333 122.825 39.4318C122.825 39.8598 122.748 40.2784 122.592 40.6875C122.441 41.0928 122.176 41.5455 121.797 42.0455C121.422 42.5417 120.901 43.1477 120.234 43.8636L117.621 46.6591V46.75H123.03V48H115.689ZM131.308 45.8182V45.2045C131.308 44.7803 131.395 44.392 131.57 44.0398C131.748 43.6837 132.005 43.3996 132.342 43.1875C132.683 42.9716 133.096 42.8636 133.581 42.8636C134.073 42.8636 134.486 42.9716 134.82 43.1875C135.153 43.3996 135.405 43.6837 135.575 44.0398C135.746 44.392 135.831 44.7803 135.831 45.2045V45.8182C135.831 46.2424 135.744 46.6326 135.57 46.9886C135.399 47.3409 135.145 47.625 134.808 47.8409C134.475 48.053 134.066 48.1591 133.581 48.1591C133.089 48.1591 132.674 48.053 132.337 47.8409C132 47.625 131.744 47.3409 131.57 46.9886C131.395 46.6326 131.308 46.2424 131.308 45.8182ZM132.467 45.2045V45.8182C132.467 46.1705 132.551 46.4867 132.717 46.767C132.884 47.0436 133.172 47.1818 133.581 47.1818C133.979 47.1818 134.259 47.0436 134.422 46.767C134.589 46.4867 134.672 46.1705 134.672 45.8182V45.2045C134.672 44.8523 134.592 44.5379 134.433 44.2614C134.274 43.9811 133.99 43.8409 133.581 43.8409C133.183 43.8409 132.897 43.9811 132.723 44.2614C132.553 44.5379 132.467 44.8523 132.467 45.2045ZM125.513 39.1591V38.5455C125.513 38.1212 125.6 37.733 125.774 37.3807C125.952 37.0246 126.21 36.7405 126.547 36.5284C126.888 36.3125 127.301 36.2045 127.786 36.2045C128.278 36.2045 128.691 36.3125 129.024 36.5284C129.357 36.7405 129.609 37.0246 129.78 37.3807C129.95 37.733 130.036 38.1212 130.036 38.5455V39.1591C130.036 39.5833 129.948 39.9735 129.774 40.3295C129.604 40.6818 129.35 40.9659 129.013 41.1818C128.679 41.3939 128.27 41.5 127.786 41.5C127.293 41.5 126.878 41.3939 126.541 41.1818C126.204 40.9659 125.948 40.6818 125.774 40.3295C125.6 39.9735 125.513 39.5833 125.513 39.1591ZM126.672 38.5455V39.1591C126.672 39.5114 126.755 39.8277 126.922 40.108C127.089 40.3845 127.376 40.5227 127.786 40.5227C128.183 40.5227 128.464 40.3845 128.626 40.108C128.793 39.8277 128.876 39.5114 128.876 39.1591V38.5455C128.876 38.1932 128.797 37.8788 128.638 37.6023C128.479 37.322 128.195 37.1818 127.786 37.1818C127.388 37.1818 127.102 37.322 126.928 37.6023C126.757 37.8788 126.672 38.1932 126.672 38.5455ZM125.945 48L133.945 36.3636H135.24L127.24 48H125.945ZM146.445 48.1818C145.657 48.1818 144.965 47.9943 144.371 47.6193C143.78 47.2443 143.318 46.7197 142.984 46.0455C142.655 45.3712 142.49 44.5833 142.49 43.6818C142.49 42.7727 142.655 41.9792 142.984 41.3011C143.318 40.6231 143.78 40.0966 144.371 39.7216C144.965 39.3466 145.657 39.1591 146.445 39.1591C147.232 39.1591 147.922 39.3466 148.513 39.7216C149.107 40.0966 149.57 40.6231 149.899 41.3011C150.232 41.9792 150.399 42.7727 150.399 43.6818C150.399 44.5833 150.232 45.3712 149.899 46.0455C149.57 46.7197 149.107 47.2443 148.513 47.6193C147.922 47.9943 147.232 48.1818 146.445 48.1818ZM146.445 46.9773C147.043 46.9773 147.536 46.8239 147.922 46.517C148.308 46.2102 148.594 45.8068 148.78 45.3068C148.965 44.8068 149.058 44.2652 149.058 43.6818C149.058 43.0985 148.965 42.5549 148.78 42.0511C148.594 41.5473 148.308 41.1402 147.922 40.8295C147.536 40.5189 147.043 40.3636 146.445 40.3636C145.846 40.3636 145.354 40.5189 144.967 40.8295C144.581 41.1402 144.295 41.5473 144.109 42.0511C143.924 42.5549 143.831 43.0985 143.831 43.6818C143.831 44.2652 143.924 44.8068 144.109 45.3068C144.295 45.8068 144.581 46.2102 144.967 46.517C145.354 46.8239 145.846 46.9773 146.445 46.9773ZM151.305 40.5227V39.2727H158.396V40.5227H155.533V48H154.192V40.5227H151.305ZM171.716 39.2727V46.75H172.943V50.8182H171.602V48H164.852V39.2727H166.193V46.75H170.375V39.2727H171.716ZM178.574 48.1818C177.733 48.1818 177.008 47.9962 176.398 47.625C175.792 47.25 175.324 46.7273 174.994 46.0568C174.669 45.3826 174.506 44.5985 174.506 43.7045C174.506 42.8106 174.669 42.0227 174.994 41.3409C175.324 40.6553 175.782 40.1212 176.369 39.7386C176.96 39.3523 177.65 39.1591 178.438 39.1591C178.892 39.1591 179.341 39.2348 179.784 39.3864C180.227 39.5379 180.631 39.7841 180.994 40.125C181.358 40.4621 181.648 40.9091 181.864 41.4659C182.08 42.0227 182.188 42.7083 182.188 43.5227V44.0909H175.46V42.9318H180.824C180.824 42.4394 180.725 42 180.528 41.6136C180.335 41.2273 180.059 40.9223 179.699 40.6989C179.343 40.4754 178.922 40.3636 178.438 40.3636C177.903 40.3636 177.441 40.4962 177.051 40.7614C176.665 41.0227 176.367 41.3636 176.159 41.7841C175.951 42.2045 175.847 42.6553 175.847 43.1364V43.9091C175.847 44.5682 175.96 45.1269 176.188 45.5852C176.419 46.0398 176.739 46.3864 177.148 46.625C177.557 46.8598 178.032 46.9773 178.574 46.9773C178.926 46.9773 179.244 46.928 179.528 46.8295C179.816 46.7273 180.064 46.5758 180.273 46.375C180.481 46.1705 180.642 45.9167 180.756 45.6136L182.051 45.9773C181.915 46.4167 181.686 46.803 181.364 47.1364C181.042 47.4659 180.644 47.7235 180.17 47.9091C179.697 48.0909 179.165 48.1818 178.574 48.1818ZM190.068 43.0227V44.2727H185.25V43.0227H190.068ZM185.568 39.2727V48H184.227V39.2727H185.568ZM191.091 39.2727V48H189.75V39.2727H191.091ZM194.699 42.4318H197.199C198.222 42.4318 199.004 42.6913 199.545 43.2102C200.087 43.7292 200.358 44.3864 200.358 45.1818C200.358 45.7045 200.237 46.1799 199.994 46.608C199.752 47.0322 199.396 47.3712 198.926 47.625C198.456 47.875 197.881 48 197.199 48H193.54V39.2727H194.881V46.75H197.199C197.729 46.75 198.165 46.6098 198.506 46.3295C198.847 46.0492 199.017 45.6894 199.017 45.25C199.017 44.7879 198.847 44.411 198.506 44.1193C198.165 43.8277 197.729 43.6818 197.199 43.6818H194.699V42.4318ZM201.744 48V39.2727H203.085V48H201.744Z" fill="#30D170"/>
</g>
<defs>
<filter id="filter0_b_53_17226" x="67.5" y="8" width="169" height="68" filterUnits="userSpaceOnUse" color-interpolation-filters="sRGB">
<feFlood flood-opacity="0" result="BackgroundImageFix"/>
<feGaussianBlur in="BackgroundImageFix" stdDeviation="10"/>
<feComposite in2="SourceAlpha" operator="in" result="effect1_backgroundBlur_53_17226"/>
<feBlend mode="normal" in="SourceGraphic" in2="effect1_backgroundBlur_53_17226" result="shape"/>
</filter>
<linearGradient id="paint0_linear_53_17226" x1="152.5" y1="0" x2="152.5" y2="84" gradientUnits="userSpaceOnUse">
<stop stop-color="#30D170" stop-opacity="0.2"/>
<stop offset="1" stop-color="#30D170" stop-opacity="0"/>
</linearGradient>
</defs>
</svg>
