<svg width="305" height="84" viewBox="0 0 305 84" fill="none" xmlns="http://www.w3.org/2000/svg">
<path d="M27.6105 44.0642L0 73.546V84H305V30.4328L277.389 12.0463L249.458 66.2036L235.653 40.1906L221.847 14.1776L194.237 44.0642L166.626 0L138.695 61.7566L110.763 63.4408L83.4737 16.4934L55.5421 57.0616L27.6105 44.0642Z" fill="url(#paint0_linear_53_17242)"/>
<g filter="url(#filter0_b_53_17242)">
<rect x="91.5" y="28" width="121" height="28" rx="8" fill="#FDFDFD" fill-opacity="0.6"/>
<path d="M108.504 45.9545V38.4545H109.776V45.9545H108.504ZM105.39 42.8409V41.5682H112.89V42.8409H105.39ZM119.71 36.3636V48H118.3V37.8409H118.232L115.391 39.7273V38.2955L118.3 36.3636H119.71ZM123.056 48V46.9773L126.897 42.7727C127.348 42.2803 127.719 41.8523 128.011 41.4886C128.302 41.1212 128.518 40.7765 128.658 40.4545C128.802 40.1288 128.874 39.7879 128.874 39.4318C128.874 39.0227 128.776 38.6686 128.579 38.3693C128.386 38.0701 128.121 37.839 127.783 37.6761C127.446 37.5133 127.067 37.4318 126.647 37.4318C126.2 37.4318 125.81 37.5246 125.477 37.7102C125.147 37.892 124.891 38.1477 124.71 38.4773C124.531 38.8068 124.442 39.1932 124.442 39.6364H123.102C123.102 38.9545 123.259 38.3561 123.573 37.8409C123.888 37.3258 124.316 36.9242 124.857 36.6364C125.403 36.3485 126.014 36.2045 126.692 36.2045C127.374 36.2045 127.978 36.3485 128.505 36.6364C129.031 36.9242 129.444 37.3125 129.744 37.8011C130.043 38.2898 130.192 38.8333 130.192 39.4318C130.192 39.8598 130.115 40.2784 129.96 40.6875C129.808 41.0928 129.543 41.5455 129.164 42.0455C128.789 42.5417 128.268 43.1477 127.602 43.8636L124.988 46.6591V46.75H130.397V48H123.056ZM138.675 45.8182V45.2045C138.675 44.7803 138.763 44.392 138.937 44.0398C139.115 43.6837 139.372 43.3996 139.71 43.1875C140.05 42.9716 140.463 42.8636 140.948 42.8636C141.441 42.8636 141.853 42.9716 142.187 43.1875C142.52 43.3996 142.772 43.6837 142.942 44.0398C143.113 44.392 143.198 44.7803 143.198 45.2045V45.8182C143.198 46.2424 143.111 46.6326 142.937 46.9886C142.766 47.3409 142.513 47.625 142.175 47.8409C141.842 48.053 141.433 48.1591 140.948 48.1591C140.456 48.1591 140.041 48.053 139.704 47.8409C139.367 47.625 139.111 47.3409 138.937 46.9886C138.763 46.6326 138.675 46.2424 138.675 45.8182ZM139.835 45.2045V45.8182C139.835 46.1705 139.918 46.4867 140.085 46.767C140.251 47.0436 140.539 47.1818 140.948 47.1818C141.346 47.1818 141.626 47.0436 141.789 46.767C141.956 46.4867 142.039 46.1705 142.039 45.8182V45.2045C142.039 44.8523 141.96 44.5379 141.8 44.2614C141.641 43.9811 141.357 43.8409 140.948 43.8409C140.55 43.8409 140.264 43.9811 140.09 44.2614C139.92 44.5379 139.835 44.8523 139.835 45.2045ZM132.88 39.1591V38.5455C132.88 38.1212 132.967 37.733 133.141 37.3807C133.319 37.0246 133.577 36.7405 133.914 36.5284C134.255 36.3125 134.668 36.2045 135.153 36.2045C135.645 36.2045 136.058 36.3125 136.391 36.5284C136.725 36.7405 136.977 37.0246 137.147 37.3807C137.317 37.733 137.403 38.1212 137.403 38.5455V39.1591C137.403 39.5833 137.316 39.9735 137.141 40.3295C136.971 40.6818 136.717 40.9659 136.38 41.1818C136.047 41.3939 135.638 41.5 135.153 41.5C134.66 41.5 134.246 41.3939 133.908 41.1818C133.571 40.9659 133.316 40.6818 133.141 40.3295C132.967 39.9735 132.88 39.5833 132.88 39.1591ZM134.039 38.5455V39.1591C134.039 39.5114 134.122 39.8277 134.289 40.108C134.456 40.3845 134.744 40.5227 135.153 40.5227C135.55 40.5227 135.831 40.3845 135.994 40.108C136.16 39.8277 136.244 39.5114 136.244 39.1591V38.5455C136.244 38.1932 136.164 37.8788 136.005 37.6023C135.846 37.322 135.562 37.1818 135.153 37.1818C134.755 37.1818 134.469 37.322 134.295 37.6023C134.124 37.8788 134.039 38.1932 134.039 38.5455ZM133.312 48L141.312 36.3636H142.607L134.607 48H133.312ZM150.266 48V39.2727H151.607V43.0682H152.494L155.63 39.2727H157.357L153.835 43.4773L157.403 48H155.675L152.812 44.3182H151.607V48H150.266ZM170.224 39.2727V46.75H171.451V50.8182H170.11V48H163.36V39.2727H164.701V46.75H168.883V39.2727H170.224ZM177.082 48.1818C176.241 48.1818 175.515 47.9962 174.906 47.625C174.299 47.25 173.832 46.7273 173.502 46.0568C173.176 45.3826 173.013 44.5985 173.013 43.7045C173.013 42.8106 173.176 42.0227 173.502 41.3409C173.832 40.6553 174.29 40.1212 174.877 39.7386C175.468 39.3523 176.157 39.1591 176.945 39.1591C177.4 39.1591 177.849 39.2348 178.292 39.3864C178.735 39.5379 179.138 39.7841 179.502 40.125C179.866 40.4621 180.156 40.9091 180.371 41.4659C180.587 42.0227 180.695 42.7083 180.695 43.5227V44.0909H173.968V42.9318H179.332C179.332 42.4394 179.233 42 179.036 41.6136C178.843 41.2273 178.567 40.9223 178.207 40.6989C177.851 40.4754 177.43 40.3636 176.945 40.3636C176.411 40.3636 175.949 40.4962 175.559 40.7614C175.173 41.0227 174.875 41.3636 174.667 41.7841C174.459 42.2045 174.354 42.6553 174.354 43.1364V43.9091C174.354 44.5682 174.468 45.1269 174.695 45.5852C174.926 46.0398 175.246 46.3864 175.656 46.625C176.065 46.8598 176.54 46.9773 177.082 46.9773C177.434 46.9773 177.752 46.928 178.036 46.8295C178.324 46.7273 178.572 46.5758 178.781 46.375C178.989 46.1705 179.15 45.9167 179.263 45.6136L180.559 45.9773C180.423 46.4167 180.193 46.803 179.871 47.1364C179.549 47.4659 179.152 47.7235 178.678 47.9091C178.205 48.0909 177.673 48.1818 177.082 48.1818ZM188.576 43.0227V44.2727H183.758V43.0227H188.576ZM184.076 39.2727V48H182.735V39.2727H184.076ZM189.599 39.2727V48H188.258V39.2727H189.599ZM195.707 48.1818C194.866 48.1818 194.14 47.9962 193.531 47.625C192.924 47.25 192.457 46.7273 192.127 46.0568C191.801 45.3826 191.638 44.5985 191.638 43.7045C191.638 42.8106 191.801 42.0227 192.127 41.3409C192.457 40.6553 192.915 40.1212 193.502 39.7386C194.093 39.3523 194.782 39.1591 195.57 39.1591C196.025 39.1591 196.474 39.2348 196.917 39.3864C197.36 39.5379 197.763 39.7841 198.127 40.125C198.491 40.4621 198.781 40.9091 198.996 41.4659C199.212 42.0227 199.32 42.7083 199.32 43.5227V44.0909H192.593V42.9318H197.957C197.957 42.4394 197.858 42 197.661 41.6136C197.468 41.2273 197.192 40.9223 196.832 40.6989C196.476 40.4754 196.055 40.3636 195.57 40.3636C195.036 40.3636 194.574 40.4962 194.184 40.7614C193.798 41.0227 193.5 41.3636 193.292 41.7841C193.084 42.2045 192.979 42.6553 192.979 43.1364V43.9091C192.979 44.5682 193.093 45.1269 193.32 45.5852C193.551 46.0398 193.871 46.3864 194.281 46.625C194.69 46.8598 195.165 46.9773 195.707 46.9773C196.059 46.9773 196.377 46.928 196.661 46.8295C196.949 46.7273 197.197 46.5758 197.406 46.375C197.614 46.1705 197.775 45.9167 197.888 45.6136L199.184 45.9773C199.048 46.4167 198.818 46.803 198.496 47.1364C198.174 47.4659 197.777 47.7235 197.303 47.9091C196.83 48.0909 196.298 48.1818 195.707 48.1818Z" fill="#FF3B30"/>
</g>
<defs>
<filter id="filter0_b_53_17242" x="71.5" y="8" width="161" height="68" filterUnits="userSpaceOnUse" color-interpolation-filters="sRGB">
<feFlood flood-opacity="0" result="BackgroundImageFix"/>
<feGaussianBlur in="BackgroundImageFix" stdDeviation="10"/>
<feComposite in2="SourceAlpha" operator="in" result="effect1_backgroundBlur_53_17242"/>
<feBlend mode="normal" in="SourceGraphic" in2="effect1_backgroundBlur_53_17242" result="shape"/>
</filter>
<linearGradient id="paint0_linear_53_17242" x1="152.5" y1="0" x2="152.5" y2="84" gradientUnits="userSpaceOnUse">
<stop stop-color="#FF4D4D" stop-opacity="0.2"/>
<stop offset="1" stop-color="#FF1B1B" stop-opacity="0"/>
</linearGradient>
</defs>
</svg>
