<svg width="97" height="72" viewBox="0 0 97 72" fill="none" xmlns="http://www.w3.org/2000/svg">
<rect x="0.5" y="0.5" width="96" height="71" rx="7.5" fill="#FDFDFD"/>
<rect x="0.5" y="0.5" width="96" height="71" rx="7.5" stroke="#F2F5F9"/>
<path d="M16.78 16.8182V27H15.5471V18.1108H15.4874L13.0016 19.7614V18.5085L15.5471 16.8182H16.78ZM22.9498 16.679C23.3674 16.6823 23.785 16.7618 24.2026 16.9176C24.6202 17.0734 25.0014 17.3319 25.3461 17.6932C25.6908 18.0511 25.9675 18.54 26.1763 19.1598C26.3851 19.7796 26.4895 20.5568 26.4895 21.4915C26.4895 22.3963 26.4034 23.2 26.231 23.9027C26.062 24.602 25.8167 25.192 25.4952 25.6726C25.177 26.1532 24.7892 26.5178 24.3319 26.7663C23.8778 27.0149 23.3641 27.1392 22.7907 27.1392C22.2206 27.1392 21.7118 27.0265 21.2644 26.8011C20.8203 26.5724 20.4557 26.2559 20.1706 25.8516C19.8889 25.4439 19.7083 24.9716 19.6287 24.4347H20.8418C20.9512 24.902 21.1683 25.2881 21.4931 25.593C21.8212 25.8946 22.2537 26.0455 22.7907 26.0455C23.5762 26.0455 24.196 25.7024 24.65 25.0163C25.1074 24.3303 25.3361 23.3608 25.3361 22.108H25.2566C25.071 22.3864 24.8506 22.6267 24.5953 22.8288C24.3401 23.031 24.0568 23.1868 23.7452 23.2962C23.4337 23.4055 23.1022 23.4602 22.7509 23.4602C22.1676 23.4602 21.6323 23.3161 21.1451 23.0277C20.6612 22.736 20.2734 22.3366 19.9817 21.8295C19.6934 21.3191 19.5492 20.7358 19.5492 20.0795C19.5492 19.4564 19.6884 18.8864 19.9668 18.3693C20.2485 17.849 20.6429 17.4347 21.15 17.1264C21.6605 16.8182 22.2604 16.669 22.9498 16.679ZM22.9498 17.7727C22.5321 17.7727 22.156 17.8771 21.8212 18.0859C21.4898 18.2914 21.2263 18.5698 21.0307 18.9212C20.8385 19.2692 20.7424 19.6553 20.7424 20.0795C20.7424 20.5038 20.8352 20.8899 21.0208 21.2379C21.2097 21.5826 21.4666 21.8577 21.7914 22.0632C22.1195 22.2654 22.4924 22.3665 22.91 22.3665C23.2248 22.3665 23.5182 22.3052 23.79 22.1825C24.0617 22.0566 24.2987 21.8859 24.5009 21.6705C24.7064 21.4517 24.8671 21.2048 24.9831 20.9297C25.0991 20.6513 25.1571 20.3613 25.1571 20.0597C25.1571 19.6619 25.061 19.2891 24.8688 18.9411C24.6799 18.593 24.418 18.3113 24.0833 18.0959C23.7518 17.8804 23.374 17.7727 22.9498 17.7727ZM28.9641 27.0795C28.7189 27.0795 28.5084 26.9917 28.3327 26.8161C28.1571 26.6404 28.0692 26.4299 28.0692 26.1847C28.0692 25.9394 28.1571 25.7289 28.3327 25.5533C28.5084 25.3776 28.7189 25.2898 28.9641 25.2898C29.2094 25.2898 29.4199 25.3776 29.5955 25.5533C29.7712 25.7289 29.859 25.9394 29.859 26.1847C29.859 26.3471 29.8176 26.4962 29.7347 26.6321C29.6552 26.768 29.5475 26.8774 29.4116 26.9602C29.279 27.0398 29.1299 27.0795 28.9641 27.0795ZM34.3074 16.8182V27H33.0744V18.1108H33.0147L30.5289 19.7614V18.5085L33.0744 16.8182H34.3074ZM37.2356 27V26.1051L40.5964 22.4261C40.9908 21.9953 41.3156 21.6207 41.5708 21.3026C41.8261 20.9811 42.015 20.6795 42.1376 20.3977C42.2636 20.1127 42.3265 19.8144 42.3265 19.5028C42.3265 19.1449 42.2404 18.835 42.068 18.5732C41.899 18.3113 41.667 18.1091 41.372 17.9666C41.077 17.8241 40.7456 17.7528 40.3777 17.7528C39.9866 17.7528 39.6452 17.834 39.3535 17.9964C39.0652 18.1555 38.8414 18.3793 38.6824 18.6676C38.5266 18.956 38.4487 19.294 38.4487 19.6818H37.2754C37.2754 19.0852 37.4129 18.5616 37.688 18.1108C37.9631 17.66 38.3377 17.3087 38.8116 17.0568C39.2889 16.8049 39.8242 16.679 40.4174 16.679C41.014 16.679 41.5427 16.8049 42.0034 17.0568C42.4641 17.3087 42.8253 17.6484 43.0872 18.076C43.349 18.5036 43.4799 18.9792 43.4799 19.5028C43.4799 19.8774 43.412 20.2436 43.2761 20.6016C43.1435 20.9562 42.9115 21.3523 42.5801 21.7898C42.252 22.224 41.7962 22.7543 41.2129 23.3807L38.926 25.8267V25.9062H43.6589V27H37.2356ZM50.1071 21.3622V22.456H45.6525V21.3622H50.1071ZM51.6731 27V26.1051L55.0339 22.4261C55.4283 21.9953 55.7531 21.6207 56.0083 21.3026C56.2636 20.9811 56.4525 20.6795 56.5751 20.3977C56.7011 20.1127 56.764 19.8144 56.764 19.5028C56.764 19.1449 56.6779 18.835 56.5055 18.5732C56.3365 18.3113 56.1045 18.1091 55.8095 17.9666C55.5145 17.8241 55.1831 17.7528 54.8152 17.7528C54.4241 17.7528 54.0827 17.834 53.791 17.9964C53.5027 18.1555 53.2789 18.3793 53.1199 18.6676C52.9641 18.956 52.8862 19.294 52.8862 19.6818H51.7129C51.7129 19.0852 51.8504 18.5616 52.1255 18.1108C52.4006 17.66 52.7752 17.3087 53.2491 17.0568C53.7264 16.8049 54.2617 16.679 54.8549 16.679C55.4515 16.679 55.9802 16.8049 56.4409 17.0568C56.9016 17.3087 57.2628 17.6484 57.5247 18.076C57.7865 18.5036 57.9174 18.9792 57.9174 19.5028C57.9174 19.8774 57.8495 20.2436 57.7136 20.6016C57.581 20.9562 57.349 21.3523 57.0176 21.7898C56.6895 22.224 56.2337 22.7543 55.6504 23.3807L53.3635 25.8267V25.9062H58.0964V27H51.6731ZM63.3315 27.1392C62.7482 27.1392 62.2228 27.0232 61.7555 26.7912C61.2882 26.5592 60.9136 26.241 60.6319 25.8366C60.3502 25.4323 60.1961 24.9716 60.1696 24.4545H61.3627C61.4092 24.9152 61.618 25.2964 61.9892 25.598C62.3637 25.8963 62.8111 26.0455 63.3315 26.0455C63.7491 26.0455 64.1203 25.9477 64.4451 25.7521C64.7733 25.5566 65.0301 25.2881 65.2157 24.9467C65.4047 24.602 65.4991 24.2126 65.4991 23.7784C65.4991 23.3343 65.4013 22.9382 65.2058 22.5902C65.0136 22.2389 64.7484 21.9621 64.4103 21.7599C64.0723 21.5578 63.6861 21.455 63.252 21.4517C62.9404 21.4484 62.6206 21.4964 62.2924 21.5959C61.9643 21.692 61.6942 21.8163 61.4821 21.9688L60.3287 21.8295L60.9451 16.8182H66.2349V17.9119H61.9792L61.6213 20.9148H61.6809C61.8897 20.7491 62.1516 20.6115 62.4664 20.5021C62.7813 20.3928 63.1094 20.3381 63.4508 20.3381C64.0739 20.3381 64.6291 20.4872 65.1163 20.7855C65.6068 21.0805 65.9913 21.4848 66.2697 21.9986C66.5514 22.5123 66.6923 23.099 66.6923 23.7585C66.6923 24.4081 66.5465 24.9882 66.2548 25.4986C65.9664 26.0057 65.5687 26.4067 65.0616 26.7017C64.5545 26.9934 63.9778 27.1392 63.3315 27.1392ZM69.1594 27.0795C68.9142 27.0795 68.7037 26.9917 68.5281 26.8161C68.3524 26.6404 68.2646 26.4299 68.2646 26.1847C68.2646 25.9394 68.3524 25.7289 68.5281 25.5533C68.7037 25.3776 68.9142 25.2898 69.1594 25.2898C69.4047 25.2898 69.6152 25.3776 69.7908 25.5533C69.9665 25.7289 70.0543 25.9394 70.0543 26.1847C70.0543 26.3471 70.0129 26.4962 69.93 26.6321C69.8505 26.768 69.7428 26.8774 69.6069 26.9602C69.4743 27.0398 69.3252 27.0795 69.1594 27.0795ZM74.5027 16.8182V27H73.2697V18.1108H73.21L70.7243 19.7614V18.5085L73.2697 16.8182H74.5027ZM77.4309 27V26.1051L80.7917 22.4261C81.1861 21.9953 81.5109 21.6207 81.7662 21.3026C82.0214 20.9811 82.2103 20.6795 82.3329 20.3977C82.4589 20.1127 82.5218 19.8144 82.5218 19.5028C82.5218 19.1449 82.4357 18.835 82.2633 18.5732C82.0943 18.3113 81.8623 18.1091 81.5673 17.9666C81.2723 17.8241 80.9409 17.7528 80.573 17.7528C80.1819 17.7528 79.8405 17.834 79.5488 17.9964C79.2605 18.1555 79.0368 18.3793 78.8777 18.6676C78.7219 18.956 78.644 19.294 78.644 19.6818H77.4707C77.4707 19.0852 77.6083 18.5616 77.8833 18.1108C78.1584 17.66 78.533 17.3087 79.0069 17.0568C79.4842 16.8049 80.0195 16.679 80.6127 16.679C81.2093 16.679 81.738 16.8049 82.1987 17.0568C82.6594 17.3087 83.0207 17.6484 83.2825 18.076C83.5443 18.5036 83.6752 18.9792 83.6752 19.5028C83.6752 19.8774 83.6073 20.2436 83.4714 20.6016C83.3388 20.9562 83.1068 21.3523 82.7754 21.7898C82.4473 22.224 81.9915 22.7543 81.4082 23.3807L79.1213 25.8267V25.9062H83.8542V27H77.4309Z" fill="#7E8794"/>
<path d="M14.4602 56L19.4091 46.2045V46.125H13.6648V44.3636H21.5909V46.1648L16.6477 56H14.4602ZM27.3267 56.1591C26.482 56.1591 25.732 56.017 25.0767 55.733C24.4252 55.4489 23.9138 55.0606 23.5426 54.5682C23.1752 54.072 22.9934 53.5095 22.9972 52.8807C22.9934 52.392 23.0994 51.9432 23.3153 51.5341C23.5313 51.125 23.8229 50.7841 24.1903 50.5114C24.5616 50.2348 24.9744 50.0587 25.429 49.983V49.9034C24.8305 49.7708 24.3456 49.4659 23.9744 48.9886C23.607 48.5076 23.4252 47.9527 23.429 47.3239C23.4252 46.7254 23.5919 46.1913 23.929 45.7216C24.2661 45.2519 24.7282 44.8826 25.3153 44.6136C25.9025 44.3409 26.5729 44.2045 27.3267 44.2045C28.0729 44.2045 28.7377 44.3409 29.321 44.6136C29.9081 44.8826 30.3703 45.2519 30.7074 45.7216C31.0483 46.1913 31.2188 46.7254 31.2188 47.3239C31.2188 47.9527 31.0312 48.5076 30.6562 48.9886C30.285 49.4659 29.8059 49.7708 29.2188 49.9034V49.983C29.6733 50.0587 30.0824 50.2348 30.446 50.5114C30.8134 50.7841 31.1051 51.125 31.321 51.5341C31.5407 51.9432 31.6506 52.392 31.6506 52.8807C31.6506 53.5095 31.465 54.072 31.0938 54.5682C30.7225 55.0606 30.2112 55.4489 29.5597 55.733C28.9119 56.017 28.1676 56.1591 27.3267 56.1591ZM27.3267 54.5341C27.7623 54.5341 28.1411 54.4602 28.4631 54.3125C28.785 54.161 29.035 53.9489 29.2131 53.6761C29.3911 53.4034 29.482 53.089 29.4858 52.733C29.482 52.3617 29.3854 52.0341 29.196 51.75C29.0104 51.4621 28.7547 51.2367 28.429 51.0739C28.107 50.911 27.7396 50.8295 27.3267 50.8295C26.91 50.8295 26.5388 50.911 26.2131 51.0739C25.8873 51.2367 25.6297 51.4621 25.4403 51.75C25.2547 52.0341 25.1638 52.3617 25.1676 52.733C25.1638 53.089 25.2509 53.4034 25.429 53.6761C25.607 53.9451 25.857 54.1553 26.179 54.3068C26.5047 54.4583 26.8873 54.5341 27.3267 54.5341ZM27.3267 49.233C27.6828 49.233 27.9972 49.161 28.2699 49.017C28.5464 48.8731 28.7642 48.6723 28.9233 48.4148C29.0824 48.1572 29.1638 47.8598 29.1676 47.5227C29.1638 47.1894 29.0843 46.8977 28.929 46.6477C28.7737 46.3939 28.5578 46.1989 28.2812 46.0625C28.0047 45.9223 27.6866 45.8523 27.3267 45.8523C26.9593 45.8523 26.6354 45.9223 26.3551 46.0625C26.0786 46.1989 25.8627 46.3939 25.7074 46.6477C25.5559 46.8977 25.482 47.1894 25.4858 47.5227C25.482 47.8598 25.5578 48.1572 25.7131 48.4148C25.8722 48.6686 26.09 48.8693 26.3665 49.017C26.6468 49.161 26.9669 49.233 27.3267 49.233ZM41.527 44.2045C42.0838 44.2083 42.6255 44.3068 43.152 44.5C43.6823 44.6894 44.1596 45 44.5838 45.4318C45.008 45.8598 45.3452 46.4337 45.5952 47.1534C45.8452 47.8731 45.9702 48.7633 45.9702 49.8239C45.974 50.8239 45.8679 51.7178 45.652 52.5057C45.4399 53.2898 45.1349 53.9527 44.7372 54.4943C44.3395 55.036 43.8603 55.4489 43.2997 55.733C42.7391 56.017 42.1084 56.1591 41.4077 56.1591C40.6728 56.1591 40.0213 56.0152 39.4531 55.7273C38.8887 55.4394 38.4323 55.0455 38.0838 54.5455C37.7353 54.0455 37.5213 53.4735 37.4418 52.8295H39.5156C39.6217 53.2917 39.8376 53.6591 40.1634 53.9318C40.4929 54.2008 40.9077 54.3352 41.4077 54.3352C42.2145 54.3352 42.8357 53.9848 43.2713 53.2841C43.7069 52.5833 43.9247 51.6098 43.9247 50.3636H43.8452C43.6596 50.697 43.419 50.9848 43.1236 51.2273C42.8281 51.4659 42.4929 51.6496 42.1179 51.7784C41.7467 51.9072 41.3527 51.9716 40.9361 51.9716C40.2543 51.9716 39.6406 51.8087 39.0952 51.483C38.5535 51.1572 38.1236 50.7102 37.8054 50.142C37.491 49.5739 37.3319 48.9242 37.3281 48.1932C37.3281 47.4356 37.5024 46.7557 37.8509 46.1534C38.2031 45.5473 38.6937 45.0701 39.3224 44.7216C39.9512 44.3693 40.6861 44.197 41.527 44.2045ZM41.5327 45.9091C41.1236 45.9091 40.7543 46.0095 40.4247 46.2102C40.099 46.4072 39.8414 46.6761 39.652 47.017C39.4664 47.3542 39.3736 47.7311 39.3736 48.1477C39.3774 48.5606 39.4702 48.9356 39.652 49.2727C39.8376 49.6098 40.0895 49.8769 40.4077 50.0739C40.7296 50.2708 41.0971 50.3693 41.5099 50.3693C41.8168 50.3693 42.1027 50.3106 42.3679 50.1932C42.633 50.0758 42.8641 49.9129 43.0611 49.7045C43.2618 49.4924 43.4171 49.2519 43.527 48.983C43.6406 48.714 43.6955 48.4299 43.6918 48.1307C43.6918 47.733 43.5971 47.3655 43.4077 47.0284C43.2221 46.6913 42.9664 46.4205 42.6406 46.2159C42.3187 46.0114 41.9493 45.9091 41.5327 45.9091ZM51.902 44.2045C52.4588 44.2083 53.0005 44.3068 53.527 44.5C54.0573 44.6894 54.5346 45 54.9588 45.4318C55.383 45.8598 55.7202 46.4337 55.9702 47.1534C56.2202 47.8731 56.3452 48.7633 56.3452 49.8239C56.349 50.8239 56.2429 51.7178 56.027 52.5057C55.8149 53.2898 55.5099 53.9527 55.1122 54.4943C54.7145 55.036 54.2353 55.4489 53.6747 55.733C53.1141 56.017 52.4834 56.1591 51.7827 56.1591C51.0478 56.1591 50.3963 56.0152 49.8281 55.7273C49.2637 55.4394 48.8073 55.0455 48.4588 54.5455C48.1103 54.0455 47.8963 53.4735 47.8168 52.8295H49.8906C49.9967 53.2917 50.2126 53.6591 50.5384 53.9318C50.8679 54.2008 51.2827 54.3352 51.7827 54.3352C52.5895 54.3352 53.2107 53.9848 53.6463 53.2841C54.0819 52.5833 54.2997 51.6098 54.2997 50.3636H54.2202C54.0346 50.697 53.794 50.9848 53.4986 51.2273C53.2031 51.4659 52.8679 51.6496 52.4929 51.7784C52.1217 51.9072 51.7277 51.9716 51.3111 51.9716C50.6293 51.9716 50.0156 51.8087 49.4702 51.483C48.9285 51.1572 48.4986 50.7102 48.1804 50.142C47.866 49.5739 47.7069 48.9242 47.7031 48.1932C47.7031 47.4356 47.8774 46.7557 48.2259 46.1534C48.5781 45.5473 49.0687 45.0701 49.6974 44.7216C50.3262 44.3693 51.0611 44.197 51.902 44.2045ZM51.9077 45.9091C51.4986 45.9091 51.1293 46.0095 50.7997 46.2102C50.474 46.4072 50.2164 46.6761 50.027 47.017C49.8414 47.3542 49.7486 47.7311 49.7486 48.1477C49.7524 48.5606 49.8452 48.9356 50.027 49.2727C50.2126 49.6098 50.4645 49.8769 50.7827 50.0739C51.1046 50.2708 51.4721 50.3693 51.8849 50.3693C52.1918 50.3693 52.4777 50.3106 52.7429 50.1932C53.008 50.0758 53.2391 49.9129 53.4361 49.7045C53.6368 49.4924 53.7921 49.2519 53.902 48.983C54.0156 48.714 54.0705 48.4299 54.0668 48.1307C54.0668 47.733 53.9721 47.3655 53.7827 47.0284C53.5971 46.6913 53.3414 46.4205 53.0156 46.2159C52.6937 46.0114 52.3243 45.9091 51.9077 45.9091ZM62.277 44.2045C62.8338 44.2083 63.3755 44.3068 63.902 44.5C64.4323 44.6894 64.9096 45 65.3338 45.4318C65.758 45.8598 66.0952 46.4337 66.3452 47.1534C66.5952 47.8731 66.7202 48.7633 66.7202 49.8239C66.724 50.8239 66.6179 51.7178 66.402 52.5057C66.1899 53.2898 65.8849 53.9527 65.4872 54.4943C65.0895 55.036 64.6103 55.4489 64.0497 55.733C63.4891 56.017 62.8584 56.1591 62.1577 56.1591C61.4228 56.1591 60.7713 56.0152 60.2031 55.7273C59.6387 55.4394 59.1823 55.0455 58.8338 54.5455C58.4853 54.0455 58.2713 53.4735 58.1918 52.8295H60.2656C60.3717 53.2917 60.5876 53.6591 60.9134 53.9318C61.2429 54.2008 61.6577 54.3352 62.1577 54.3352C62.9645 54.3352 63.5857 53.9848 64.0213 53.2841C64.4569 52.5833 64.6747 51.6098 64.6747 50.3636H64.5952C64.4096 50.697 64.169 50.9848 63.8736 51.2273C63.5781 51.4659 63.2429 51.6496 62.8679 51.7784C62.4967 51.9072 62.1027 51.9716 61.6861 51.9716C61.0043 51.9716 60.3906 51.8087 59.8452 51.483C59.3035 51.1572 58.8736 50.7102 58.5554 50.142C58.241 49.5739 58.0819 48.9242 58.0781 48.1932C58.0781 47.4356 58.2524 46.7557 58.6009 46.1534C58.9531 45.5473 59.4437 45.0701 60.0724 44.7216C60.7012 44.3693 61.4361 44.197 62.277 44.2045ZM62.2827 45.9091C61.8736 45.9091 61.5043 46.0095 61.1747 46.2102C60.849 46.4072 60.5914 46.6761 60.402 47.017C60.2164 47.3542 60.1236 47.7311 60.1236 48.1477C60.1274 48.5606 60.2202 48.9356 60.402 49.2727C60.5876 49.6098 60.8395 49.8769 61.1577 50.0739C61.4796 50.2708 61.8471 50.3693 62.2599 50.3693C62.5668 50.3693 62.8527 50.3106 63.1179 50.1932C63.383 50.0758 63.6141 49.9129 63.8111 49.7045C64.0118 49.4924 64.1671 49.2519 64.277 48.983C64.3906 48.714 64.4455 48.4299 64.4418 48.1307C64.4418 47.733 64.3471 47.3655 64.1577 47.0284C63.9721 46.6913 63.7164 46.4205 63.3906 46.2159C63.0687 46.0114 62.6993 45.9091 62.2827 45.9091ZM78.3366 51.6193H72.2401V49.8864H78.2912C78.7798 49.8864 79.1813 49.8087 79.4957 49.6534C79.8139 49.4981 80.0488 49.2822 80.2003 49.0057C80.3556 48.7292 80.4313 48.4053 80.4276 48.0341C80.4313 47.6705 80.3556 47.3447 80.2003 47.0568C80.0488 46.7652 79.8177 46.536 79.5071 46.3693C79.2003 46.1989 78.8101 46.1136 78.3366 46.1136H76.0526V56H73.9503V44.3636H78.3366C79.2382 44.3636 80.0014 44.5265 80.6264 44.8523C81.2514 45.1742 81.7249 45.6117 82.0469 46.1648C82.3726 46.714 82.5355 47.3314 82.5355 48.017C82.5355 48.7292 82.3707 49.3561 82.0412 49.8977C81.7116 50.4356 81.2344 50.858 80.6094 51.1648C79.9844 51.4678 79.2268 51.6193 78.3366 51.6193ZM78.6037 52.483V54.2159H72.2401V52.483H78.6037Z" fill="#0F1113"/>
</svg>
