<svg width="136" height="24" viewBox="0 0 136 24" fill="none" xmlns="http://www.w3.org/2000/svg">
<path d="M12.8647 2.99616C12.4794 2.33201 11.5203 2.33201 11.1349 2.99616L8.42083 7.67347C8.23045 8.00155 7.90141 8.22544 7.52634 8.28209L2.44003 9.05032C1.58575 9.17935 1.28609 10.258 1.95139 10.8092L5.74048 13.9484C6.09123 14.239 6.25615 14.6973 6.17094 15.1448L5.17978 20.3499C5.02309 21.1727 5.88688 21.812 6.62803 21.4218L11.4174 18.9C11.782 18.708 12.2177 18.708 12.5822 18.9L17.3716 21.4218C18.1128 21.812 18.9765 21.1727 18.8199 20.3499L17.8287 15.1448C17.7435 14.6973 17.9084 14.239 18.2591 13.9484L22.0482 10.8092C22.7135 10.258 22.4139 9.17935 21.5596 9.05032L16.4733 8.28209C16.0982 8.22544 15.7692 8.00155 15.5788 7.67347L12.8647 2.99616Z" fill="#FF4D4D"/>
<path d="M40.8647 2.99616C40.4794 2.33201 39.5203 2.33201 39.1349 2.99616L36.4208 7.67347C36.2305 8.00155 35.9014 8.22544 35.5263 8.28209L30.44 9.05032C29.5857 9.17935 29.2861 10.258 29.9514 10.8092L33.7405 13.9484C34.0912 14.239 34.2561 14.6973 34.1709 15.1448L33.1798 20.3499C33.0231 21.1727 33.8869 21.812 34.628 21.4218L39.4174 18.9C39.782 18.708 40.2177 18.708 40.5822 18.9L45.3716 21.4218C46.1128 21.812 46.9765 21.1727 46.8199 20.3499L45.8287 15.1448C45.7435 14.6973 45.9084 14.239 46.2591 13.9484L50.0482 10.8092C50.7135 10.258 50.4139 9.17935 49.5596 9.05032L44.4733 8.28209C44.0982 8.22544 43.7692 8.00155 43.5788 7.67347L40.8647 2.99616Z" fill="#FF4D4D"/>
<path d="M68.8647 2.99616C68.4794 2.33201 67.5203 2.33201 67.1349 2.99616L64.4208 7.67347C64.2305 8.00155 63.9014 8.22544 63.5263 8.28209L58.44 9.05032C57.5857 9.17935 57.2861 10.258 57.9514 10.8092L61.7405 13.9484C62.0912 14.239 62.2561 14.6973 62.1709 15.1448L61.1798 20.3499C61.0231 21.1727 61.8869 21.812 62.628 21.4218L67.4174 18.9C67.782 18.708 68.2177 18.708 68.5822 18.9L73.3716 21.4218C74.1128 21.812 74.9765 21.1727 74.8199 20.3499L73.8287 15.1448C73.7435 14.6973 73.9084 14.239 74.2591 13.9484L78.0482 10.8092C78.7135 10.258 78.4139 9.17935 77.5596 9.05032L72.4733 8.28209C72.0982 8.22544 71.7692 8.00155 71.5788 7.67347L68.8647 2.99616Z" fill="#FF4D4D"/>
<path d="M96.8647 2.99616C96.4794 2.33201 95.5203 2.33201 95.1349 2.99616L92.4208 7.67347C92.2305 8.00155 91.9014 8.22544 91.5263 8.28209L86.44 9.05032C85.5857 9.17935 85.2861 10.258 85.9514 10.8092L89.7405 13.9484C90.0912 14.239 90.2561 14.6973 90.1709 15.1448L89.1798 20.3499C89.0231 21.1727 89.8869 21.812 90.628 21.4218L95.4174 18.9C95.782 18.708 96.2177 18.708 96.5822 18.9L101.372 21.4218C102.113 21.812 102.977 21.1727 102.82 20.3499L101.829 15.1448C101.743 14.6973 101.908 14.239 102.259 13.9484L106.048 10.8092C106.714 10.258 106.414 9.17935 105.56 9.05032L100.473 8.28209C100.098 8.22544 99.7692 8.00155 99.5788 7.67347L96.8647 2.99616Z" fill="#FF4D4D"/>
<path d="M124.865 2.99616C124.479 2.33201 123.52 2.33201 123.135 2.99616L120.421 7.67347C120.23 8.00155 119.901 8.22544 119.526 8.28209L114.44 9.05032C113.586 9.17935 113.286 10.258 113.951 10.8092L117.74 13.9484C118.091 14.239 118.256 14.6973 118.171 15.1448L117.18 20.3499C117.023 21.1727 117.887 21.812 118.628 21.4218L123.417 18.9C123.782 18.708 124.218 18.708 124.582 18.9L129.372 21.4218C130.113 21.812 130.977 21.1727 130.82 20.3499L129.829 15.1448C129.743 14.6973 129.908 14.239 130.259 13.9484L134.048 10.8092C134.714 10.258 134.414 9.17935 133.56 9.05032L128.473 8.28209C128.098 8.22544 127.769 8.00155 127.579 7.67347L124.865 2.99616Z" fill="#C3CAD4"/>
</svg>
