<svg width="376" height="24" viewBox="0 0 376 24" fill="none" xmlns="http://www.w3.org/2000/svg">
<path d="M13.5313 2.99628C13.1459 2.33213 12.1868 2.33213 11.8014 2.99628L9.08733 7.67359C8.89696 8.00168 8.56791 8.22557 8.19285 8.28222L3.10653 9.05044C2.25225 9.17947 1.95259 10.2581 2.6179 10.8093L6.40699 13.9485C6.75773 14.2391 6.92265 14.6975 6.83745 15.1449L5.84628 20.35C5.6896 21.1729 6.55338 21.8122 7.29453 21.4219L12.0839 18.9001C12.4485 18.7082 12.8842 18.7082 13.2487 18.9001L18.0381 21.4219C18.7793 21.8122 19.643 21.1729 19.4864 20.35L18.4952 15.1449C18.41 14.6975 18.5749 14.2391 18.9257 13.9485L22.7147 10.8093C23.38 10.2581 23.0804 9.17947 22.2261 9.05044L17.1398 8.28222C16.7647 8.22557 16.4357 8.00168 16.2453 7.67359L13.5313 2.99628Z" fill="#FF4D4D"/>
<path d="M41.5313 2.99628C41.1459 2.33213 40.1868 2.33213 39.8014 2.99628L37.0873 7.67359C36.897 8.00168 36.5679 8.22557 36.1928 8.28222L31.1065 9.05044C30.2523 9.17947 29.9526 10.2581 30.6179 10.8093L34.407 13.9485C34.7577 14.2391 34.9226 14.6975 34.8374 15.1449L33.8463 20.35C33.6896 21.1729 34.5534 21.8122 35.2945 21.4219L40.0839 18.9001C40.4485 18.7082 40.8842 18.7082 41.2487 18.9001L46.0381 21.4219C46.7793 21.8122 47.643 21.1729 47.4864 20.35L46.4952 15.1449C46.41 14.6975 46.5749 14.2391 46.9257 13.9485L50.7147 10.8093C51.38 10.2581 51.0804 9.17947 50.2261 9.05044L45.1398 8.28222C44.7647 8.22557 44.4357 8.00168 44.2453 7.67359L41.5313 2.99628Z" fill="#FF4D4D"/>
<path d="M69.5313 2.99628C69.1459 2.33213 68.1868 2.33213 67.8014 2.99628L65.0873 7.67359C64.897 8.00168 64.5679 8.22557 64.1928 8.28222L59.1065 9.05044C58.2523 9.17947 57.9526 10.2581 58.6179 10.8093L62.407 13.9485C62.7577 14.2391 62.9226 14.6975 62.8374 15.1449L61.8463 20.35C61.6896 21.1729 62.5534 21.8122 63.2945 21.4219L68.0839 18.9001C68.4485 18.7082 68.8842 18.7082 69.2487 18.9001L74.0381 21.4219C74.7793 21.8122 75.643 21.1729 75.4864 20.35L74.4952 15.1449C74.41 14.6975 74.5749 14.2391 74.9257 13.9485L78.7147 10.8093C79.38 10.2581 79.0804 9.17947 78.2261 9.05044L73.1398 8.28222C72.7647 8.22557 72.4357 8.00168 72.2453 7.67359L69.5313 2.99628Z" fill="#FF4D4D"/>
<path d="M97.5313 2.99628C97.1459 2.33213 96.1868 2.33213 95.8014 2.99628L93.0873 7.67359C92.897 8.00168 92.5679 8.22557 92.1928 8.28222L87.1065 9.05044C86.2523 9.17947 85.9526 10.2581 86.6179 10.8093L90.407 13.9485C90.7577 14.2391 90.9226 14.6975 90.8374 15.1449L89.8463 20.35C89.6896 21.1729 90.5534 21.8122 91.2945 21.4219L96.0839 18.9001C96.4485 18.7082 96.8842 18.7082 97.2487 18.9001L102.038 21.4219C102.779 21.8122 103.643 21.1729 103.486 20.35L102.495 15.1449C102.41 14.6975 102.575 14.2391 102.926 13.9485L106.715 10.8093C107.38 10.2581 107.08 9.17947 106.226 9.05044L101.14 8.28222C100.765 8.22557 100.436 8.00168 100.245 7.67359L97.5313 2.99628Z" fill="#FF4D4D"/>
<path d="M125.531 2.99628C125.146 2.33213 124.187 2.33213 123.801 2.99628L121.087 7.67359C120.897 8.00168 120.568 8.22557 120.193 8.28222L115.107 9.05044C114.252 9.17947 113.953 10.2581 114.618 10.8093L118.407 13.9485C118.758 14.2391 118.923 14.6975 118.837 15.1449L117.846 20.35C117.69 21.1729 118.553 21.8122 119.295 21.4219L124.084 18.9001C124.448 18.7082 124.884 18.7082 125.249 18.9001L130.038 21.4219C130.779 21.8122 131.643 21.1729 131.486 20.35L130.495 15.1449C130.41 14.6975 130.575 14.2391 130.926 13.9485L134.715 10.8093C135.38 10.2581 135.08 9.17947 134.226 9.05044L129.14 8.28222C128.765 8.22557 128.436 8.00168 128.245 7.67359L125.531 2.99628Z" fill="#FF4D4D"/>
<path d="M149.962 6.36364V18H148.553V7.84091H148.485L145.644 9.72727V8.29545L148.553 6.36364H149.962ZM153.309 18V16.9773L157.149 12.7727C157.6 12.2803 157.971 11.8523 158.263 11.4886C158.555 11.1212 158.771 10.7765 158.911 10.4545C159.055 10.1288 159.127 9.78788 159.127 9.43182C159.127 9.02273 159.028 8.66856 158.831 8.36932C158.638 8.07008 158.373 7.83901 158.036 7.67614C157.699 7.51326 157.32 7.43182 156.899 7.43182C156.452 7.43182 156.062 7.52462 155.729 7.71023C155.399 7.89205 155.144 8.14773 154.962 8.47727C154.784 8.80682 154.695 9.19318 154.695 9.63636H153.354C153.354 8.95455 153.511 8.35606 153.826 7.84091C154.14 7.32576 154.568 6.92424 155.11 6.63636C155.655 6.34848 156.267 6.20455 156.945 6.20455C157.627 6.20455 158.231 6.34848 158.757 6.63636C159.284 6.92424 159.697 7.3125 159.996 7.80114C160.295 8.28977 160.445 8.83333 160.445 9.43182C160.445 9.85985 160.367 10.2784 160.212 10.6875C160.06 11.0928 159.795 11.5455 159.417 12.0455C159.042 12.5417 158.521 13.1477 157.854 13.8636L155.24 16.6591V16.75H160.649V18H153.309ZM163.996 18.0909C163.716 18.0909 163.475 17.9905 163.274 17.7898C163.074 17.589 162.973 17.3485 162.973 17.0682C162.973 16.7879 163.074 16.5473 163.274 16.3466C163.475 16.1458 163.716 16.0455 163.996 16.0455C164.276 16.0455 164.517 16.1458 164.718 16.3466C164.918 16.5473 165.019 16.7879 165.019 17.0682C165.019 17.2538 164.971 17.4242 164.877 17.5795C164.786 17.7348 164.663 17.8598 164.507 17.9545C164.356 18.0455 164.185 18.0909 163.996 18.0909ZM170.103 6.36364V18H168.693V7.84091H168.625L165.784 9.72727V8.29545L168.693 6.36364H170.103ZM177.245 18.1591C176.389 18.1591 175.659 17.9261 175.057 17.4602C174.455 16.9905 173.995 16.3106 173.676 15.4205C173.358 14.5265 173.199 13.447 173.199 12.1818C173.199 10.9242 173.358 9.85038 173.676 8.96023C173.998 8.06629 174.461 7.38447 175.063 6.91477C175.669 6.44129 176.396 6.20455 177.245 6.20455C178.093 6.20455 178.818 6.44129 179.421 6.91477C180.027 7.38447 180.489 8.06629 180.807 8.96023C181.129 9.85038 181.29 10.9242 181.29 12.1818C181.29 13.447 181.131 14.5265 180.813 15.4205C180.495 16.3106 180.034 16.9905 179.432 17.4602C178.83 17.9261 178.101 18.1591 177.245 18.1591ZM177.245 16.9091C178.093 16.9091 178.752 16.5 179.222 15.6818C179.692 14.8636 179.926 13.697 179.926 12.1818C179.926 11.1742 179.818 10.3163 179.603 9.60795C179.39 8.89962 179.084 8.35985 178.682 7.98864C178.284 7.61742 177.805 7.43182 177.245 7.43182C176.404 7.43182 175.747 7.84659 175.273 8.67614C174.8 9.50189 174.563 10.6705 174.563 12.1818C174.563 13.1894 174.669 14.0455 174.881 14.75C175.093 15.4545 175.398 15.9905 175.796 16.358C176.197 16.7254 176.68 16.9091 177.245 16.9091ZM184.043 18.0909C183.763 18.0909 183.522 17.9905 183.321 17.7898C183.121 17.589 183.02 17.3485 183.02 17.0682C183.02 16.7879 183.121 16.5473 183.321 16.3466C183.522 16.1458 183.763 16.0455 184.043 16.0455C184.323 16.0455 184.564 16.1458 184.765 16.3466C184.965 16.5473 185.066 16.7879 185.066 17.0682C185.066 17.2538 185.018 17.4242 184.924 17.5795C184.833 17.7348 184.71 17.8598 184.554 17.9545C184.403 18.0455 184.232 18.0909 184.043 18.0909ZM187.449 18V16.9773L191.29 12.7727C191.741 12.2803 192.112 11.8523 192.404 11.4886C192.695 11.1212 192.911 10.7765 193.051 10.4545C193.195 10.1288 193.267 9.78788 193.267 9.43182C193.267 9.02273 193.169 8.66856 192.972 8.36932C192.779 8.07008 192.514 7.83901 192.176 7.67614C191.839 7.51326 191.461 7.43182 191.04 7.43182C190.593 7.43182 190.203 7.52462 189.87 7.71023C189.54 7.89205 189.284 8.14773 189.103 8.47727C188.925 8.80682 188.836 9.19318 188.836 9.63636H187.495C187.495 8.95455 187.652 8.35606 187.966 7.84091C188.281 7.32576 188.709 6.92424 189.25 6.63636C189.796 6.34848 190.408 6.20455 191.086 6.20455C191.767 6.20455 192.372 6.34848 192.898 6.63636C193.425 6.92424 193.837 7.3125 194.137 7.80114C194.436 8.28977 194.586 8.83333 194.586 9.43182C194.586 9.85985 194.508 10.2784 194.353 10.6875C194.201 11.0928 193.936 11.5455 193.557 12.0455C193.182 12.5417 192.661 13.1477 191.995 13.8636L189.381 16.6591V16.75H194.79V18H187.449ZM201.068 18.1591C200.318 18.1591 199.65 18.0303 199.063 17.7727C198.479 17.5152 198.015 17.1572 197.671 16.6989C197.33 16.2367 197.144 15.7008 197.114 15.0909H198.546C198.576 15.4659 198.705 15.7898 198.932 16.0625C199.159 16.3314 199.457 16.5398 199.824 16.6875C200.192 16.8352 200.599 16.9091 201.046 16.9091C201.546 16.9091 201.989 16.822 202.375 16.6477C202.762 16.4735 203.065 16.2311 203.284 15.9205C203.504 15.6098 203.614 15.25 203.614 14.8409C203.614 14.4129 203.508 14.036 203.296 13.7102C203.084 13.3807 202.773 13.1231 202.364 12.9375C201.955 12.7519 201.455 12.6591 200.864 12.6591H199.932V11.4091H200.864C201.326 11.4091 201.731 11.3258 202.08 11.1591C202.432 10.9924 202.707 10.7576 202.904 10.4545C203.104 10.1515 203.205 9.79545 203.205 9.38636C203.205 8.99242 203.118 8.64962 202.943 8.35795C202.769 8.06629 202.523 7.83901 202.205 7.67614C201.89 7.51326 201.519 7.43182 201.091 7.43182C200.69 7.43182 200.311 7.50568 199.955 7.65341C199.603 7.79735 199.315 8.00758 199.091 8.28409C198.868 8.55682 198.747 8.88636 198.728 9.27273H197.364C197.387 8.66288 197.57 8.12879 197.915 7.67045C198.26 7.20833 198.711 6.84848 199.267 6.59091C199.828 6.33333 200.443 6.20455 201.114 6.20455C201.834 6.20455 202.451 6.35038 202.966 6.64205C203.481 6.92992 203.877 7.31061 204.154 7.78409C204.43 8.25758 204.568 8.76894 204.568 9.31818C204.568 9.97348 204.396 10.5322 204.051 10.9943C203.711 11.4564 203.247 11.7765 202.659 11.9545V12.0455C203.394 12.1667 203.968 12.4792 204.381 12.983C204.794 13.483 205 14.1023 205 14.8409C205 15.4735 204.828 16.0417 204.483 16.5455C204.142 17.0455 203.676 17.4394 203.086 17.7273C202.495 18.0152 201.822 18.1591 201.068 18.1591Z" fill="#7E8794"/>
</svg>
