<svg width="44" height="44" viewBox="0 0 44 44" fill="none" xmlns="http://www.w3.org/2000/svg">
<rect x="0.5" y="0.5" width="43" height="43" rx="21.5" fill="#FDFDFD"/>
<rect x="0.5" y="0.5" width="43" height="43" rx="21.5" stroke="#F2F5F9"/>
<path d="M13.667 30.3335H30.3337" stroke="#263141" stroke-width="1.25" stroke-miterlimit="10" stroke-linecap="round" stroke-linejoin="round"/>
<path d="M20.125 15.3332V30.3332H23.875V15.3332C23.875 14.4165 23.5 13.6665 22.375 13.6665H21.625C20.5 13.6665 20.125 14.4165 20.125 15.3332Z" stroke="#263141" stroke-width="1.25" stroke-linecap="round" stroke-linejoin="round"/>
<path d="M14.5 20.3332V30.3332H17.8333V20.3332C17.8333 19.4165 17.5 18.6665 16.5 18.6665H15.8333C14.8333 18.6665 14.5 19.4165 14.5 20.3332Z" stroke="#263141" stroke-width="1.25" stroke-linecap="round" stroke-linejoin="round"/>
<path d="M26.167 24.5002V30.3335H29.5003V24.5002C29.5003 23.5835 29.167 22.8335 28.167 22.8335H27.5003C26.5003 22.8335 26.167 23.5835 26.167 24.5002Z" stroke="#263141" stroke-width="1.25" stroke-linecap="round" stroke-linejoin="round"/>
</svg>
